<?xml version="1.0" encoding="UTF-8"?>
<svg id="Layer_2" data-name="Layer 2" xmlns="http://www.w3.org/2000/svg" viewBox="0 0 512 512">
  <defs>
    <style>
      .cls-1 {
        fill: #223832;
      }

      .cls-2 {
        fill: #00c896;
      }
    </style>
  </defs>
  <g id="Layer_1-2" data-name="Layer 1">
    <rect class="cls-2" width="512" height="512" rx="49.19" ry="49.19"/>
    <g>
      <path class="cls-1" d="M214.26,310.33v94.41c0,2.28-1.85,4.12-4.12,4.12h-26.44c-2.28,0-4.12-1.85-4.12-4.12v-62.23c0-2.28-1.85-4.12-4.12-4.12h-38.36c-2.28,0-4.12,1.85-4.12,4.12v62.23c0,2.28-1.85,4.12-4.12,4.12h-19.95c-2.28,0-4.12-1.85-4.12-4.12v-157.96c0-3.24,3.57-5.22,6.32-3.49l101.25,63.55c1.2.75,1.93,2.07,1.93,3.49Z"/>
      <path class="cls-1" d="M299.62,205.14l101.45,63.68c2.68,1.68,6.16-.24,6.16-3.41V107.17c0-2.22-1.8-4.02-4.02-4.02h-101.45c-2.22,0-4.02,1.8-4.02,4.02v94.56c0,1.38.71,2.67,1.88,3.41Z"/>
      <path class="cls-1" d="M400.24,406.66L106.93,226.1c-1.35-.83-2.17-2.3-2.17-3.88v-112.36c0-3.56,3.91-5.75,6.94-3.88l293.31,180.74c1.35.83,2.17,2.3,2.17,3.88v112.18c0,3.56-3.91,5.75-6.94,3.88Z"/>
      <circle class="cls-1" cx="142.71" cy="371.31" r="4.43"/>
    </g>
  </g>
</svg>