<?xml version="1.0" encoding="UTF-8"?>
<svg id="Layer_2" data-name="Layer 2" xmlns="http://www.w3.org/2000/svg" viewBox="0 0 822.87 167.3">
  <g id="Layer_1-2" data-name="Layer 1">
    <g>
      <path d="M140.5,12.01v143.28c0,2.85-.98,5.29-2.94,7.25-1.98,1.96-4.4,2.96-7.27,2.96h-13.74c-3.14,0-5.72-1.25-7.43-3.62L29.44,52.33v102.96c0,2.85-.98,5.29-2.96,7.25-1.96,1.96-4.4,2.96-7.25,2.96h-9.01c-2.87,0-5.32-1-7.27-2.96s-2.96-4.4-2.96-7.25V12.01c0-2.87,1-5.29,2.96-7.25,1.96-1.98,4.4-2.96,7.27-2.96h13.97c2.91,0,5.45,1.2,7.34,3.49l79.55,109.24V12.01c0-2.87.98-5.29,2.94-7.25s4.4-2.96,7.27-2.96h9.01c2.85,0,5.29.98,7.27,2.94,1.96,1.98,2.94,4.43,2.94,7.27Z"/>
      <path d="M222.05,31.22v37.69h52.42c2.87,0,5.29,1,7.27,2.96,1.96,1.98,2.96,4.4,2.96,7.27v9.01c0,2.85-1,5.29-2.96,7.25s-4.4,2.96-7.27,2.96h-52.42v37.69h81.7c2.87,0,5.29,1,7.27,2.96,1.96,1.96,2.96,4.4,2.96,7.25v9.03c0,2.85-1,5.29-2.96,7.25-1.98,1.96-4.4,2.96-7.27,2.96h-100.92c-2.87,0-5.29-1-7.25-2.96-1.98-1.96-2.96-4.4-2.96-7.25V12.01c0-2.87.98-5.29,2.96-7.25,1.96-1.98,4.38-2.96,7.25-2.96h100.92c2.87,0,5.29.98,7.27,2.94,1.96,1.98,2.96,4.43,2.96,7.27v9.01c0,2.87-1,5.29-2.96,7.27-1.98,1.96-4.4,2.94-7.27,2.94h-81.7Z"/>
      <path d="M475.04,118.8c0,14.99-6.03,27-17.9,35.69-11.63,8.5-27.69,12.81-47.72,12.81-27.86,0-47.37-8.52-57.93-25.31-1.67-2.27-2.51-4.54-2.51-6.76,0-3.6,2.02-6.29,5.69-7.58l12.85-4.36,2.49-.53c1.87,0,3.85.89,6.03,2.67l.33.27.24.38c2.38,3.69,6.29,6.63,11.63,8.72,5.58,2.18,12.63,3.29,20.95,3.29,12.5,0,21.88-1.8,27.86-5.34,5.6-3.34,8.34-7.67,8.34-13.28,0-4.43-1.09-7.74-3.34-10.16-2.36-2.56-5.98-4.67-10.76-6.23-5.14-1.69-12.77-3.6-22.66-5.67-12.76-2.74-23.4-5.89-31.62-9.41-8.5-3.62-15.23-8.56-20.01-14.7-4.89-6.25-7.36-14.3-7.36-23.88s2.56-17.72,7.58-25.22c4.98-7.45,12.14-13.41,21.28-17.75,9.03-4.29,19.44-6.45,30.91-6.45,12.25,0,23.02,2.34,32.02,6.94,9.03,4.65,15.95,11.14,20.55,19.33,1.65,2.25,2.49,4.49,2.49,6.69,0,1.85-.69,5.16-5.29,6.69l-13.5,4.78-2.47.53c-2.16,0-4.27-1.07-6.47-3.29l-.29-.29-.2-.36c-1.96-3.65-5.2-6.58-9.67-8.72-4.65-2.2-10.34-3.34-16.95-3.34-9.56,0-17.21,1.96-22.73,5.8-5.27,3.69-7.83,7.96-7.83,13.05,0,3.78,1.05,6.69,3.16,8.87,2.31,2.38,5.92,4.4,10.74,6.07,5.14,1.76,12.61,3.69,22.22,5.76,13.01,2.58,23.88,5.74,32.29,9.41,8.67,3.78,15.5,9.01,20.26,15.54,4.85,6.63,7.29,15.12,7.29,25.31Z"/>
      <path d="M624.86,12.01v9.01c0,2.87-1,5.32-2.96,7.27s-4.4,2.94-7.25,2.94h-39.58v124.07c0,2.85-.98,5.29-2.96,7.25-1.96,1.96-4.4,2.96-7.25,2.96h-9.23c-2.87,0-5.32-1-7.27-2.96s-2.96-4.4-2.96-7.25V31.22h-39.56c-2.87,0-5.31-.98-7.27-2.96-1.96-1.93-2.94-4.38-2.94-7.25v-9.01c0-2.87.98-5.29,2.94-7.25,1.96-1.98,4.4-2.96,7.27-2.96h108.81c2.85,0,5.29.98,7.25,2.94,1.96,1.98,2.96,4.43,2.96,7.27Z"/>
      <path d="M811.58,41.68c-7.52-12.68-17.88-22.88-30.87-30.38-12.99-7.52-27.46-11.3-43.05-11.3s-29.87,3.78-42.85,11.3c-12.97,7.49-23.35,17.7-30.84,30.38-7.52,12.7-11.32,26.82-11.32,41.96s3.8,29.29,11.32,41.96c3.74,6.34,8.23,12.05,13.37,17.15,5.16,5.07,11.01,9.5,17.48,13.25,12.99,7.49,27.4,11.3,42.85,11.3s30.09-3.8,43.05-11.3c12.99-7.49,23.35-17.72,30.87-30.4,7.49-12.68,11.3-26.8,11.3-41.96s-3.8-29.27-11.3-41.96ZM737.65,29.2c10.25,0,19.77,2.47,28.24,7.29,8.47,4.85,15.26,11.52,20.15,19.84,4.91,8.32,7.41,17.5,7.41,27.31s-2.49,19.01-7.41,27.31c-4.89,8.34-11.68,15.01-20.15,19.84-8.47,4.85-17.97,7.29-28.24,7.29s-19.75-2.45-28.13-7.27c-8.38-4.85-15.14-11.52-20.06-19.86-4.89-8.29-7.38-17.5-7.38-27.31s2.49-18.99,7.38-27.31c4.91-8.32,11.68-14.99,20.06-19.84,8.41-4.83,17.86-7.29,28.13-7.29Z"/>
    </g>
  </g>
</svg>